# Blender v2.83.4 OBJ File: ''
# www.blender.org
mtllib curvedstick.mtl
o Cube
v 0.909132 0.925899 -0.633205
v -0.695153 -1.078802 0.716102
v 0.909132 1.074101 -0.478856
v -0.695153 -0.921198 0.860837
v 0.695153 0.925899 -0.633205
v -0.909132 -1.078802 0.716102
v 0.695153 1.074101 -0.478856
v -0.909132 -0.921198 0.860837
v 0.783797 0.790035 -0.419934
v 0.508061 0.593194 -0.203613
v 0.232324 0.253671 -0.122250
v 0.106990 0.000000 -0.106990
v -0.018345 -0.250000 -0.106990
v -0.294081 -0.534478 0.100296
v -0.569818 -0.949858 0.433097
v -0.783797 -0.823278 0.609111
v -0.508061 -0.627611 0.321133
v -0.232324 -0.250000 0.137675
v -0.106990 0.000000 0.106990
v 0.018345 0.250000 0.106990
v 0.294081 0.562373 -0.001092
v 0.569818 0.914219 -0.238911
v 0.783797 0.913770 -0.245358
v 0.508061 0.619036 -0.031053
v 0.232324 0.250000 0.085351
v 0.106990 0.000000 0.106990
v -0.018345 -0.250000 0.106990
v -0.294081 -0.573647 0.268534
v -0.569818 -0.829694 0.600348
v 0.569818 0.793279 -0.415435
v 0.294081 0.566563 -0.177033
v 0.018345 0.250000 -0.106990
v -0.106990 0.000000 -0.106990
v -0.232324 -0.250000 -0.076305
v -0.508061 -0.612046 0.162054
v -0.783797 -0.948852 0.442908
vt 0.625000 0.500000
vt 0.875000 0.500000
vt 0.875000 0.750000
vt 0.625000 0.750000
vt 0.593750 0.750000
vt 0.625000 1.000000
vt 0.593750 1.000000
vt 0.593750 0.000000
vt 0.625000 0.000000
vt 0.625000 0.250000
vt 0.593750 0.250000
vt 0.125000 0.500000
vt 0.375000 0.500000
vt 0.375000 0.750000
vt 0.125000 0.750000
vt 0.593750 0.500000
vt 0.375000 0.250000
vt 0.406250 0.250000
vt 0.406250 0.500000
vt 0.437500 0.250000
vt 0.437500 0.500000
vt 0.468750 0.250000
vt 0.468750 0.500000
vt 0.500000 0.250000
vt 0.500000 0.500000
vt 0.531250 0.250000
vt 0.531250 0.500000
vt 0.562500 0.250000
vt 0.562500 0.500000
vt 0.406250 0.750000
vt 0.437500 0.750000
vt 0.468750 0.750000
vt 0.500000 0.750000
vt 0.531250 0.750000
vt 0.562500 0.750000
vt 0.375000 0.000000
vt 0.406250 0.000000
vt 0.437500 0.000000
vt 0.468750 0.000000
vt 0.500000 0.000000
vt 0.531250 0.000000
vt 0.562500 0.000000
vt 0.406250 1.000000
vt 0.375000 1.000000
vt 0.437500 1.000000
vt 0.468750 1.000000
vt 0.500000 1.000000
vt 0.531250 1.000000
vt 0.562500 1.000000
vn 0.0000 0.7213 -0.6926
vn 0.0094 0.8260 0.5636
vn -0.8994 0.3391 -0.2758
vn 0.0000 -0.6764 0.7365
vn 0.8985 -0.3384 0.2798
vn -0.0120 -0.8456 -0.5337
vn -0.0119 -0.9045 -0.4264
vn -0.0191 -0.6236 -0.7815
vn -0.0921 -0.5107 -0.8548
vn -0.0715 -0.0254 -0.9971
vn -0.0355 -0.0126 -0.9993
vn -0.0852 -0.1555 -0.9842
vn -0.0103 -0.7254 -0.6882
vn 0.9027 -0.3213 0.2860
vn 0.8262 -0.5477 0.1322
vn 0.7171 -0.6934 -0.0711
vn 0.8939 -0.4482 0.0000
vn 0.8951 -0.4458 -0.0039
vn 0.7934 -0.6076 0.0354
vn 0.7482 -0.6093 0.2626
vn -0.9014 0.3201 -0.2915
vn -0.7797 0.5932 -0.2006
vn -0.7945 0.6068 0.0253
vn -0.8939 0.4482 0.0000
vn -0.7509 0.6604 0.0071
vn -0.7851 0.5880 -0.1948
vn 0.0213 0.9343 0.3559
vn -0.0061 0.8107 0.5854
vn 0.1364 0.3489 0.9272
vn 0.0715 0.0254 0.9971
vn 0.0505 0.0179 0.9986
vn 0.0831 0.2505 0.9645
vn -0.0062 0.5766 0.8170
usemtl Material
s off
f 1/1/1 5/2/1 7/3/1 3/4/1
f 23/5/2 3/4/2 7/6/2 22/7/2
f 22/8/3 7/9/3 5/10/3 30/11/3
f 6/12/4 2/13/4 4/14/4 8/15/4
f 9/16/5 1/1/5 3/4/5 23/5/5
f 30/11/6 5/10/6 1/1/6 9/16/6
f 6/17/7 36/18/7 15/19/7 2/13/7
f 36/18/8 35/20/8 14/21/8 15/19/8
f 35/20/9 34/22/9 13/23/9 14/21/9
f 34/22/10 33/24/10 12/25/10 13/23/10
f 33/24/11 32/26/11 11/27/11 12/25/11
f 32/26/12 31/28/12 10/29/12 11/27/12
f 31/28/13 30/11/13 9/16/13 10/29/13
f 2/13/14 15/19/14 29/30/14 4/14/14
f 15/19/15 14/21/15 28/31/15 29/30/15
f 14/21/16 13/23/16 27/32/16 28/31/16
f 13/23/17 12/25/17 26/33/17 27/32/17
f 12/25/18 11/27/18 25/34/18 26/33/18
f 11/27/19 10/29/19 24/35/19 25/34/19
f 10/29/20 9/16/20 23/5/20 24/35/20
f 8/36/21 16/37/21 36/18/21 6/17/21
f 16/37/22 17/38/22 35/20/22 36/18/22
f 17/38/23 18/39/23 34/22/23 35/20/23
f 18/39/24 19/40/24 33/24/24 34/22/24
f 19/40/24 20/41/24 32/26/24 33/24/24
f 20/41/25 21/42/25 31/28/25 32/26/25
f 21/42/26 22/8/26 30/11/26 31/28/26
f 4/14/27 29/30/27 16/43/27 8/44/27
f 29/30/28 28/31/28 17/45/28 16/43/28
f 28/31/29 27/32/29 18/46/29 17/45/29
f 27/32/30 26/33/30 19/47/30 18/46/30
f 26/33/31 25/34/31 20/48/31 19/47/31
f 25/34/32 24/35/32 21/49/32 20/48/32
f 24/35/33 23/5/33 22/7/33 21/49/33
